<svg width="255" height="251" viewBox="0 0 255 251" fill="none" xmlns="http://www.w3.org/2000/svg">
<g clip-path="url(#clip0_405_66454)">
<path opacity="0.47" d="M1.92233 45.2764C0.208063 42.2632 -0.261788 38.6998 0.612891 35.3453C1.48757 31.9908 3.63763 29.1105 6.60494 27.318C12.754 23.6742 24.8965 23.2742 28.4626 29.5399C32.0288 35.8056 22.5858 41.8713 18.9197 48.087C13.8149 56.769 5.48844 51.5532 1.92233 45.2764Z" fill="#ECF1F7"/>
<path opacity="0.47" d="M39.4384 241.946C38.3923 242.718 37.202 243.272 35.938 243.576C34.674 243.88 33.3618 243.928 32.0791 243.716C30.7964 243.504 29.5692 243.037 28.47 242.343C27.3708 241.649 26.4219 240.741 25.6795 239.674C22.4966 235.164 21.2857 225.743 25.6795 222.488C30.0732 219.233 35.3224 226.121 40.2439 228.498C47.1261 231.803 43.8544 238.685 39.4384 241.946Z" fill="#E1E2FE"/>
<path opacity="0.47" d="M214.505 4.35496C215.629 3.16113 216.981 2.20495 218.481 1.54308C219.981 0.881207 221.599 0.527093 223.238 0.501713C224.878 0.476332 226.505 0.780202 228.025 1.39532C229.545 2.01044 230.926 2.92431 232.086 4.08278C237.007 8.96536 240.54 20.3969 235.752 25.4239C230.964 30.4509 222.976 23.0798 216.372 21.2357C207.14 18.6472 209.717 9.38196 214.505 4.35496Z" fill="#E1E2FE"/>
<path opacity="0.08" d="M12.6428 73.1443C9.41001 82.4539 8.52682 92.6246 10.6209 102.245C13.4316 115.188 23.1245 126.558 21.4748 140.356C20.4805 148.638 20.6583 156.226 20.4583 164.363C20.0472 181.066 31.7177 194.914 45.4155 201.819C56.5249 207.44 69.1785 208.923 81.3877 207.851C92.3693 206.885 103.19 203.996 113.633 200.424C123.698 196.981 133.463 192.698 144.317 193.02C153.338 193.287 161.709 196.642 170.274 198.969C190.721 204.524 214.911 203.741 232.286 191.687C251.339 178.478 259.032 153.41 252.378 131.507C248.806 119.754 244.046 109.572 245.762 97.0683C246.612 90.9137 247.878 84.6425 246.706 78.5379C245.634 72.9165 242.551 67.8618 238.897 63.4625C229.048 51.5921 215.011 44.021 200.441 39.5773C183.905 34.5281 165.541 31.8007 148.344 34.3892C114.932 39.4717 107.667 34.5281 72.739 29.5677C49.3482 26.2349 27.385 44.8487 16.7255 64.0401C15.1058 66.952 13.7398 69.998 12.6428 73.1443Z" fill="#1D4ED8"/>
<g opacity="0.83">
<path opacity="0.81" d="M28.8124 100.029C33.6228 93.68 41.0327 89.3696 44.7044 82.0707C49.0704 73.3387 48.1483 63.0292 52.0477 54.1084C57.8024 40.9216 68.2341 29.7233 81.2931 23.5576C87.5866 20.5914 94.4967 18.7861 101.234 19.3027C111.622 20.1026 120.581 26.285 127.586 33.6671C138.012 44.6599 145.389 60.2686 157.903 69.0783C164.808 73.9331 172.901 68.7783 180.239 67.1453C188.44 65.3651 196.955 65.6514 205.018 67.9785C219.577 72.1223 232.114 82.554 238.385 96.3074C245.079 110.994 244.129 131.302 231.564 143.911C225.737 149.738 217.866 153.665 213.55 160.659C208.14 169.435 207.507 181.3 205.99 191.059C204.25 202.028 199.703 212.361 192.792 221.055L192.559 221.349C186.75 228.59 178.732 233.731 169.727 235.989C160.723 238.247 151.227 237.496 142.689 233.853L105.862 217.894C68.4951 201.708 40.1329 175.623 26.5128 137.818C23.5632 129.636 22.4967 112.194 26.2517 104.212C26.9536 102.73 27.8121 101.328 28.8124 100.029Z" fill="#E1E2FE"/>
</g>
<g opacity="0.41">
<path d="M3.63834 159.114C3.18525 154.894 3.08492 150.642 3.33839 146.405C4.54376 126.525 13.5424 107.367 27.5013 93.4466C32.5005 88.4808 38.1996 83.9592 41.2825 77.588C46.4761 66.8619 45.443 54.9026 52.0197 44.2599C58.6211 33.5323 68.4089 25.1351 80.0154 20.2414C114.188 6.08803 163.891 23.5464 161.669 66.5731C161.669 66.7286 161.669 66.9508 161.669 67.2341C161.622 69.3157 161.996 71.3854 162.77 73.3184C163.544 75.2514 164.701 77.0077 166.172 78.4813C167.643 79.9549 169.397 81.1153 171.329 81.8926C173.261 82.6699 175.33 83.0479 177.411 83.0038C209.551 82.0762 238.446 105.878 245.956 137.573C250.789 157.953 245.69 180.844 231.67 196.192C221.204 207.64 206.735 214.395 192.165 219.283C162.969 229.081 131.863 232.458 101.145 230.931C72.4276 229.503 41.8157 222.71 22.1966 201.23C11.7315 189.771 5.3103 174.701 3.63834 159.114Z" fill="#D0DCFE"/>
</g>
<g opacity="0.31">
<path d="M164.781 17.382C164.863 13.3049 161.691 9.935 157.696 9.85512C153.702 9.77523 150.398 13.0156 150.317 17.0927C150.235 21.1697 153.407 24.5396 157.401 24.6195C161.395 24.6994 164.699 21.459 164.781 17.382Z" fill="#E1E2FE"/>
</g>
<g opacity="0.31">
<path d="M35.2111 17.4974C35.2645 18.23 35.5328 18.9306 35.9825 19.5114C36.4323 20.0922 37.0434 20.5274 37.7393 20.7626C38.4352 20.9977 39.185 21.0222 39.8949 20.8331C40.6047 20.644 41.2429 20.2497 41.7297 19.6996C42.2164 19.1494 42.53 18.4678 42.6312 17.7403C42.7324 17.0127 42.6166 16.2714 42.2984 15.6094C41.9803 14.9473 41.4738 14.3938 40.8425 14.0182C40.2112 13.6426 39.4831 13.4617 38.7495 13.498C38.2538 13.5263 37.7687 13.6524 37.3221 13.8691C36.8754 14.0858 36.4761 14.3888 36.1472 14.7606C35.8182 15.1324 35.5662 15.5657 35.4055 16.0354C35.2448 16.5051 35.1788 17.002 35.2111 17.4974Z" fill="#E1E2FE"/>
</g>
<g opacity="0.31">
<path d="M249.867 103.589C249.902 104.075 250.079 104.539 250.376 104.924C250.673 105.31 251.078 105.599 251.539 105.755C251.999 105.911 252.496 105.928 252.966 105.804C253.437 105.679 253.86 105.418 254.183 105.054C254.505 104.69 254.714 104.239 254.781 103.757C254.848 103.275 254.772 102.784 254.562 102.345C254.351 101.906 254.016 101.539 253.598 101.29C253.18 101.041 252.698 100.921 252.211 100.945C251.884 100.964 251.562 101.047 251.267 101.19C250.971 101.333 250.707 101.533 250.489 101.779C250.271 102.025 250.104 102.311 249.997 102.622C249.89 102.933 249.846 103.262 249.867 103.589Z" fill="#E1E2FE"/>
</g>
<g opacity="0.31">
<path d="M238.357 230.721C238.492 224.302 233.504 218.991 227.216 218.859C220.929 218.727 215.723 223.825 215.588 230.244C215.454 236.663 220.442 241.974 226.729 242.106C233.017 242.238 238.223 237.14 238.357 230.721Z" fill="#E1E2FE"/>
</g>
<path opacity="0.58" d="M200.974 233.786C202.355 233.786 203.474 232.667 203.474 231.286C203.474 229.906 202.355 228.787 200.974 228.787C199.594 228.787 198.475 229.906 198.475 231.286C198.475 232.667 199.594 233.786 200.974 233.786Z" fill="#3E479B"/>
<path opacity="0.58" d="M137.718 12.9813C138.408 12.9813 138.967 12.4217 138.967 11.7315C138.967 11.0412 138.408 10.4817 137.718 10.4817C137.027 10.4817 136.468 11.0412 136.468 11.7315C136.468 12.4217 137.027 12.9813 137.718 12.9813Z" fill="#3E479B"/>
<path opacity="0.58" d="M60.5797 239.785C61.9602 239.785 63.0793 238.666 63.0793 237.285C63.0793 235.905 61.9602 234.786 60.5797 234.786C59.1992 234.786 58.0801 235.905 58.0801 237.285C58.0801 238.666 59.1992 239.785 60.5797 239.785Z" fill="#3E479B"/>
<path opacity="0.58" d="M211.156 250.5C212.23 250.5 213.1 249.63 213.1 248.556C213.1 247.482 212.23 246.612 211.156 246.612C210.082 246.612 209.212 247.482 209.212 248.556C209.212 249.63 210.082 250.5 211.156 250.5Z" fill="#EF929C"/>
<path opacity="0.58" d="M19.8859 14.3256C20.3461 14.3256 20.7191 13.9525 20.7191 13.4924C20.7191 13.0322 20.3461 12.6592 19.8859 12.6592C19.4258 12.6592 19.0527 13.0322 19.0527 13.4924C19.0527 13.9525 19.4258 14.3256 19.8859 14.3256Z" fill="#3E479B"/>
<path opacity="0.58" d="M248.172 37.035C248.923 35.5584 248.335 33.7526 246.858 33.0016C245.382 32.2505 243.576 32.8387 242.825 34.3152C242.074 35.7918 242.662 37.5976 244.138 38.3487C245.615 39.0997 247.421 38.5116 248.172 37.035Z" fill="#EF929C"/>
<path opacity="0.58" d="M29.3795 5.72698C29.3305 5.95456 29.2151 6.16249 29.0479 6.3245C28.8807 6.48652 28.6693 6.59535 28.4403 6.63724C28.2113 6.67913 27.975 6.6522 27.7613 6.55986C27.5476 6.46752 27.366 6.31391 27.2396 6.11843C27.1132 5.92296 27.0475 5.69439 27.0509 5.46161C27.0543 5.22883 27.1266 5.00229 27.2588 4.8106C27.3909 4.61892 27.5768 4.47069 27.7932 4.38465C28.0095 4.29861 28.2464 4.27861 28.4741 4.3272C28.7792 4.3938 29.0456 4.57833 29.2152 4.84054C29.3848 5.10276 29.4439 5.4214 29.3795 5.72698Z" fill="#EF929C"/>
<path opacity="0.58" d="M148.594 1.92211C148.545 2.15018 148.431 2.35887 148.264 2.52173C148.097 2.68459 147.886 2.79431 147.657 2.83699C147.428 2.87967 147.191 2.85339 146.977 2.76147C146.763 2.66956 146.581 2.51614 146.454 2.32066C146.327 2.12518 146.261 1.89643 146.264 1.66336C146.267 1.4303 146.339 1.20342 146.471 1.01145C146.604 0.819472 146.79 0.671046 147.006 0.584963C147.223 0.498881 147.46 0.479014 147.688 0.527878C147.839 0.559553 147.983 0.620813 148.11 0.708134C148.238 0.795455 148.347 0.907114 148.431 1.03669C148.515 1.16626 148.573 1.31119 148.601 1.46315C148.629 1.6151 148.626 1.77108 148.594 1.92211Z" fill="#EF929C"/>
<path opacity="0.58" d="M231.292 38.8886C231.251 39.0834 231.154 39.2618 231.011 39.4011C230.869 39.5404 230.689 39.6343 230.493 39.6709C230.297 39.7075 230.095 39.6852 229.912 39.6067C229.729 39.5283 229.573 39.3973 229.465 39.2303C229.357 39.0633 229.3 38.8679 229.303 38.6688C229.306 38.4697 229.367 38.2759 229.48 38.112C229.593 37.948 229.753 37.8214 229.938 37.748C230.123 37.6746 230.325 37.6579 230.52 37.6998C230.649 37.7269 230.771 37.7792 230.88 37.8536C230.989 37.9281 231.081 38.0233 231.153 38.1337C231.225 38.2442 231.274 38.3677 231.298 38.4973C231.322 38.6268 231.32 38.7598 231.292 38.8886Z" fill="#3E479B"/>
<path opacity="0.58" d="M10.4655 211.306C10.4247 211.5 10.3273 211.677 10.1857 211.816C10.044 211.954 9.86445 212.047 9.66977 212.083C9.4751 212.119 9.27407 212.097 9.09217 212.019C8.91027 211.94 8.75569 211.81 8.64803 211.644C8.54036 211.478 8.48446 211.283 8.48742 211.085C8.49037 210.887 8.55204 210.695 8.66461 210.532C8.77718 210.369 8.93557 210.243 9.11972 210.17C9.30388 210.098 9.50548 210.081 9.69899 210.123C9.95714 210.179 10.1826 210.335 10.3263 210.557C10.4699 210.778 10.52 211.048 10.4655 211.306Z" fill="#3E479B"/>
<g style="mix-blend-mode:overlay" opacity="0.5">
<path d="M234.069 103.112C234.069 102.275 233.737 101.473 233.145 100.881C232.554 100.289 231.751 99.9568 230.914 99.9568H131.758C130.921 99.9583 130.12 100.291 129.528 100.883C128.937 101.474 128.604 102.276 128.603 103.112C128.604 103.948 128.937 104.75 129.528 105.341C130.12 105.933 130.921 106.265 131.758 106.267H204.724C205.559 106.267 206.36 106.599 206.951 107.189C207.542 107.78 207.874 108.581 207.874 109.416C207.874 109.83 207.793 110.241 207.635 110.623C207.477 111.006 207.246 111.354 206.953 111.647C206.66 111.94 206.313 112.173 205.931 112.331C205.548 112.49 205.138 112.571 204.724 112.571H156.77C155.935 112.571 155.134 112.903 154.543 113.494C153.953 114.085 153.621 114.886 153.621 115.721C153.62 116.135 153.701 116.545 153.859 116.928C154.017 117.311 154.249 117.659 154.541 117.952C154.834 118.245 155.181 118.477 155.564 118.636C155.946 118.794 156.356 118.876 156.77 118.876H183.144C183.558 118.876 183.968 118.958 184.351 119.116C184.733 119.275 185.081 119.507 185.373 119.8C185.666 120.094 185.897 120.441 186.055 120.824C186.213 121.207 186.294 121.617 186.294 122.031C186.294 122.866 185.962 123.668 185.371 124.258C184.78 124.849 183.979 125.181 183.144 125.181H173.523C172.687 125.181 171.884 125.513 171.292 126.105C170.701 126.696 170.368 127.499 170.368 128.336C170.37 129.172 170.703 129.974 171.294 130.565C171.885 131.156 172.687 131.489 173.523 131.491H225.799C226.635 131.491 227.438 131.158 228.03 130.567C228.621 129.975 228.954 129.172 228.954 128.336C228.954 127.499 228.621 126.696 228.03 126.105C227.438 125.513 226.635 125.181 225.799 125.181H208.635C208.22 125.181 207.81 125.1 207.428 124.942C207.045 124.785 206.697 124.553 206.404 124.26C206.111 123.968 205.878 123.62 205.72 123.238C205.561 122.855 205.479 122.445 205.479 122.031C205.479 121.194 205.812 120.392 206.404 119.8C206.995 119.208 207.798 118.876 208.635 118.876H251.228C252.065 118.876 252.867 118.544 253.459 117.952C254.051 117.36 254.383 116.558 254.383 115.721C254.383 115.307 254.301 114.897 254.143 114.514C253.984 114.132 253.752 113.785 253.459 113.492C253.165 113.199 252.818 112.968 252.435 112.81C252.052 112.652 251.642 112.571 251.228 112.571H220.91C220.496 112.571 220.086 112.49 219.704 112.331C219.321 112.173 218.974 111.94 218.681 111.647C218.389 111.354 218.157 111.006 217.999 110.623C217.841 110.241 217.76 109.83 217.761 109.416C217.761 108.581 218.093 107.78 218.683 107.189C219.274 106.599 220.075 106.267 220.91 106.267H230.909C231.324 106.268 231.735 106.187 232.118 106.028C232.501 105.87 232.85 105.638 233.143 105.345C233.437 105.052 233.67 104.704 233.829 104.321C233.988 103.937 234.069 103.527 234.069 103.112Z" fill="white"/>
</g>
<g style="mix-blend-mode:overlay" opacity="0.5">
<path d="M106.906 141.406C106.906 140.569 106.573 139.767 105.982 139.175C105.39 138.583 104.588 138.251 103.751 138.251H35.4281C34.5957 138.257 33.7994 138.592 33.2134 139.183C32.6274 139.774 32.2993 140.573 32.3008 141.406C32.3008 141.819 32.3823 142.229 32.5405 142.611C32.6988 142.993 32.9308 143.34 33.2233 143.633C33.5157 143.925 33.8629 144.157 34.245 144.316C34.6272 144.474 35.0367 144.555 35.4503 144.555H58.2245C59.0613 144.555 59.8638 144.888 60.4555 145.479C61.0472 146.071 61.3796 146.874 61.3796 147.71C61.3796 148.547 61.0472 149.35 60.4555 149.941C59.8638 150.533 59.0613 150.865 58.2245 150.865H5.68827C5.2742 150.865 4.86405 150.946 4.4813 151.104C4.09854 151.262 3.75068 151.493 3.45764 151.786C3.16459 152.078 2.9321 152.426 2.77348 152.808C2.61485 153.191 2.5332 153.601 2.5332 154.015C2.5332 154.852 2.86561 155.654 3.4573 156.246C4.04899 156.838 4.85149 157.17 5.68827 157.17H43.799C44.6343 157.17 45.4354 157.502 46.026 158.092C46.6167 158.683 46.9485 159.484 46.9485 160.32C46.9492 160.734 46.8683 161.144 46.7104 161.526C46.5524 161.909 46.3205 162.257 46.028 162.55C45.7355 162.843 45.388 163.076 45.0056 163.234C44.6231 163.393 44.2131 163.475 43.799 163.475H34.1561C33.742 163.475 33.332 163.556 32.9495 163.715C32.567 163.873 32.2196 164.106 31.9271 164.399C31.6345 164.692 31.4026 165.04 31.2447 165.423C31.0867 165.805 31.0058 166.216 31.0066 166.63C31.0066 167.465 31.3384 168.266 31.929 168.857C32.5197 169.447 33.3208 169.779 34.1561 169.779H88.1143C88.9496 169.779 89.7507 169.447 90.3414 168.857C90.932 168.266 91.2638 167.465 91.2638 166.63C91.2646 166.216 91.1837 165.805 91.0257 165.423C90.8678 165.04 90.6359 164.692 90.3433 164.399C90.0508 164.106 89.7034 163.873 89.3209 163.715C88.9384 163.556 88.5284 163.475 88.1143 163.475H70.967C70.1302 163.475 69.3277 163.142 68.736 162.55C68.1443 161.959 67.8119 161.156 67.8119 160.32C67.8134 159.484 68.1465 158.683 68.738 158.092C69.3295 157.502 70.1312 157.17 70.967 157.17H129.502C130.339 157.17 131.142 156.838 131.733 156.246C132.325 155.654 132.657 154.852 132.657 154.015C132.657 153.601 132.576 153.191 132.417 152.808C132.259 152.426 132.026 152.078 131.733 151.786C131.44 151.493 131.092 151.262 130.709 151.104C130.327 150.946 129.916 150.865 129.502 150.865H74.0165C73.1807 150.864 72.3796 150.531 71.7892 149.939C71.1987 149.348 70.867 148.546 70.867 147.71C70.8663 147.296 70.9472 146.886 71.1052 146.503C71.2631 146.121 71.495 145.773 71.7875 145.48C72.0801 145.187 72.4275 144.954 72.81 144.796C73.1925 144.637 73.6025 144.555 74.0165 144.555H103.751C104.165 144.556 104.575 144.475 104.958 144.317C105.341 144.159 105.688 143.927 105.981 143.635C106.274 143.342 106.507 142.995 106.666 142.612C106.824 142.23 106.906 141.82 106.906 141.406Z" fill="white"/>
</g>
<g style="mix-blend-mode:multiply" opacity="0.56">
<path d="M237.353 176.845V173.101L230.804 171.723C230.553 169.999 230.102 168.31 229.459 166.691L234.459 162.247L232.587 159.003L226.226 161.086C225.145 159.721 223.909 158.485 222.544 157.403L224.627 151.021L221.383 149.149L216.939 154.148C215.319 153.506 213.631 153.055 211.906 152.804L210.529 146.255H206.741L205.363 152.804C203.639 153.054 201.95 153.505 200.33 154.148L195.887 149.149L192.643 151.021L194.726 157.381C193.361 158.463 192.125 159.699 191.043 161.064L184.683 158.981L182.811 162.225L187.81 166.669C187.168 168.288 186.717 169.977 186.466 171.701L179.917 173.079V176.823L186.466 178.206C186.719 179.919 187.17 181.596 187.81 183.205L182.811 187.649L184.683 190.893L191.043 188.815C192.125 190.179 193.361 191.412 194.726 192.492L192.643 198.852L195.887 200.724L200.33 195.725C201.95 196.368 203.639 196.819 205.363 197.069L206.741 203.618H210.484L211.851 197.164C213.575 196.913 215.264 196.462 216.883 195.82L221.327 200.819L224.571 198.947L222.488 192.587C223.853 191.507 225.089 190.273 226.171 188.91L232.531 190.987L234.403 187.743L229.404 183.299C230.044 181.691 230.495 180.013 230.748 178.3L237.353 176.845ZM224.954 174.973C224.953 178.205 223.994 181.364 222.198 184.05C220.401 186.737 217.849 188.831 214.862 190.067C211.876 191.303 208.591 191.626 205.421 190.995C202.251 190.363 199.34 188.806 197.055 186.521C194.77 184.235 193.214 181.323 192.584 178.153C191.954 174.984 192.278 171.698 193.515 168.712C194.752 165.726 196.847 163.175 199.534 161.379C202.221 159.584 205.381 158.625 208.613 158.625C210.759 158.625 212.885 159.048 214.868 159.87C216.851 160.692 218.652 161.896 220.17 163.414C221.688 164.932 222.891 166.734 223.712 168.717C224.533 170.701 224.955 172.826 224.954 174.973Z" fill="#C5CAE9"/>
<path d="M215.559 176.619C216.472 172.781 214.1 168.93 210.262 168.017C206.424 167.104 202.573 169.475 201.66 173.313C200.747 177.151 203.118 181.003 206.956 181.915C210.794 182.828 214.646 180.457 215.559 176.619Z" fill="#C5CAE9"/>
</g>
<path d="M91.3755 146.822H50.0986V186.221H91.3755V146.822Z" fill="#242B5B"/>
<path d="M96.5075 150.171H44.96C44.96 148.394 45.6657 146.691 46.922 145.434C48.1783 144.178 49.8822 143.472 51.6589 143.472H89.803C90.6832 143.471 91.5549 143.644 92.3683 143.98C93.1817 144.317 93.9208 144.81 94.5435 145.432C95.1661 146.054 95.66 146.793 95.997 147.606C96.334 148.419 96.5075 149.291 96.5075 150.171Z" fill="url(#paint0_linear_405_66454)"/>
<path d="M96.5078 153.321H44.9658V160.02H96.5078V153.321Z" fill="url(#paint1_linear_405_66454)"/>
<path d="M96.5078 163.175H44.9658V169.874H96.5078V163.175Z" fill="url(#paint2_linear_405_66454)"/>
<path d="M96.5078 173.023H44.9658V179.722H96.5078V173.023Z" fill="url(#paint3_linear_405_66454)"/>
<path d="M89.803 189.576H51.6589C49.8817 189.575 48.1778 188.868 46.9217 187.61C45.6656 186.353 44.96 184.649 44.96 182.872H96.5075C96.5075 184.65 95.8011 186.355 94.5438 187.612C93.2864 188.87 91.5811 189.576 89.803 189.576Z" fill="url(#paint4_linear_405_66454)"/>
<path d="M89.803 189.576H51.6589C49.8817 189.575 48.1778 188.868 46.9217 187.61C45.6656 186.353 44.96 184.649 44.96 182.872H96.5075C96.5075 184.65 95.8011 186.355 94.5438 187.612C93.2864 188.87 91.5811 189.576 89.803 189.576Z" fill="url(#paint5_linear_405_66454)"/>
<path d="M54.9195 146.822C54.9195 147.034 54.8566 147.241 54.7388 147.417C54.621 147.593 54.4536 147.731 54.2577 147.812C54.0618 147.893 53.8463 147.914 53.6383 147.873C53.4303 147.832 53.2393 147.73 53.0894 147.58C52.9395 147.43 52.8374 147.239 52.796 147.031C52.7546 146.823 52.7759 146.607 52.857 146.411C52.9381 146.215 53.0755 146.048 53.2518 145.93C53.4281 145.812 53.6354 145.75 53.8474 145.75C53.9884 145.749 54.1282 145.776 54.2586 145.83C54.389 145.883 54.5074 145.962 54.6071 146.062C54.7068 146.162 54.7858 146.28 54.8394 146.41C54.893 146.541 54.9202 146.681 54.9195 146.822Z" fill="#242B5B"/>
<path d="M59.7466 146.822C59.7466 147.034 59.6838 147.241 59.566 147.417C59.4482 147.593 59.2807 147.731 59.0849 147.812C58.889 147.893 58.6734 147.914 58.4654 147.873C58.2575 147.832 58.0665 147.73 57.9165 147.58C57.7666 147.43 57.6645 147.239 57.6231 147.031C57.5818 146.823 57.603 146.607 57.6841 146.411C57.7653 146.215 57.9027 146.048 58.079 145.93C58.2553 145.812 58.4626 145.75 58.6746 145.75C58.9589 145.75 59.2316 145.862 59.4327 146.064C59.6337 146.265 59.7466 146.537 59.7466 146.822Z" fill="#242B5B"/>
<path d="M64.5679 146.822C64.5679 147.034 64.5051 147.241 64.3873 147.417C64.2695 147.593 64.102 147.731 63.9061 147.812C63.7103 147.893 63.4947 147.914 63.2867 147.873C63.0788 147.832 62.8878 147.73 62.7378 147.58C62.5879 147.43 62.4858 147.239 62.4444 147.031C62.4031 146.823 62.4243 146.607 62.5054 146.411C62.5866 146.215 62.724 146.048 62.9003 145.93C63.0766 145.812 63.2838 145.75 63.4959 145.75C63.6369 145.749 63.7766 145.776 63.907 145.83C64.0374 145.883 64.1559 145.962 64.2556 146.062C64.3553 146.162 64.4342 146.28 64.4878 146.41C64.5414 146.541 64.5687 146.681 64.5679 146.822Z" fill="#242B5B"/>
<g style="mix-blend-mode:screen" opacity="0.35">
<path d="M96.5077 150.171C96.5077 149.291 96.3342 148.419 95.9972 147.606C95.6602 146.793 95.1663 146.054 94.5436 145.432C93.921 144.81 93.1818 144.317 92.3684 143.98C91.555 143.644 90.6833 143.471 89.8032 143.472H63.0518L69.7563 150.171H96.5077Z" fill="url(#paint6_linear_405_66454)"/>
<path d="M96.5081 153.326H72.9062L79.6052 160.025H96.5081V153.326Z" fill="url(#paint7_linear_405_66454)"/>
<path d="M96.5073 163.175H82.7539L89.4584 169.874H96.5073V163.175Z" fill="url(#paint8_linear_405_66454)"/>
<path d="M96.5078 173.023H92.6084L96.5078 176.928V173.023Z" fill="url(#paint9_linear_405_66454)"/>
</g>
<path d="M151.099 196.503H113.377L118.676 170.568H145.794L151.099 196.503Z" fill="#7986CB"/>
<g style="mix-blend-mode:multiply" opacity="0.6">
<path d="M148.261 182.411H116.216L118.677 170.568H145.795L148.261 182.411Z" fill="#7986CB"/>
</g>
<path d="M164.575 200.286H99.8906C99.8877 198.726 100.504 197.229 101.603 196.123C102.703 195.017 104.197 194.392 105.756 194.386H158.693C159.466 194.386 160.233 194.539 160.948 194.836C161.662 195.132 162.312 195.567 162.858 196.115C163.404 196.663 163.837 197.314 164.132 198.029C164.427 198.745 164.577 199.512 164.575 200.286Z" fill="url(#paint10_linear_405_66454)"/>
<path d="M187.821 96.6072H76.6551C72.2283 96.6072 68.6396 100.196 68.6396 104.623V171.718C68.6396 176.145 72.2283 179.733 76.6551 179.733H187.821C192.248 179.733 195.837 176.145 195.837 171.718V104.623C195.837 100.196 192.248 96.6072 187.821 96.6072Z" fill="url(#paint11_linear_405_66454)"/>
<path d="M192.398 102.545H72.0781V165.985H192.398V102.545Z" fill="#0078C0"/>
<path d="M192.398 102.545H72.0781V165.985H192.398V102.545Z" fill="url(#paint12_linear_405_66454)"/>
<g style="mix-blend-mode:multiply" opacity="0.6">
<path d="M192.398 102.545H72.0781V106.822H192.398V102.545Z" fill="#7986CB"/>
</g>
<path d="M132.235 175.534C133.711 175.534 134.907 174.338 134.907 172.862C134.907 171.386 133.711 170.19 132.235 170.19C130.76 170.19 129.563 171.386 129.563 172.862C129.563 174.338 130.76 175.534 132.235 175.534Z" fill="#EAEEF1"/>
<g style="mix-blend-mode:overlay" opacity="0.2">
<path d="M192.399 102.545H108.156L171.591 165.985H192.399V102.545Z" fill="white"/>
</g>
<path d="M120.138 87.7363H43.5885C41.9227 87.7363 40.5723 89.0867 40.5723 90.7525V129.274C40.5723 130.94 41.9227 132.291 43.5885 132.291H120.138C121.803 132.291 123.154 130.94 123.154 129.274V90.7525C123.154 89.0867 121.803 87.7363 120.138 87.7363Z" fill="url(#paint13_linear_405_66454)"/>
<path d="M117.66 96.9684H46.0601C44.5992 96.9684 43.416 95.6186 43.416 93.9577C43.416 92.2913 44.5992 90.9526 46.0601 90.9526H117.66C119.121 90.9526 120.304 92.2969 120.304 93.9577C120.304 95.6241 119.121 96.9684 117.66 96.9684Z" fill="url(#paint14_linear_405_66454)"/>
<g style="mix-blend-mode:multiply" opacity="0.57">
<path d="M46.0601 92.0969H117.66C118.31 92.1351 118.925 92.4002 119.399 92.8458C119.873 93.2915 120.176 93.8895 120.254 94.5354C120.284 94.3517 120.301 94.1661 120.304 93.9799C120.304 92.3135 119.121 90.9749 117.66 90.9749H46.0601C44.5992 90.9749 43.416 92.3191 43.416 93.9799C43.4192 94.1661 43.4359 94.3517 43.466 94.5354C43.5443 93.8895 43.8468 93.2915 44.3209 92.8458C44.795 92.4002 45.4105 92.1351 46.0601 92.0969Z" fill="#FB8C00"/>
</g>
<path d="M46.2095 94.8242C46.6268 94.8242 46.965 94.4388 46.965 93.9633C46.965 93.4878 46.6268 93.1023 46.2095 93.1023C45.7923 93.1023 45.4541 93.4878 45.4541 93.9633C45.4541 94.4388 45.7923 94.8242 46.2095 94.8242Z" fill="white"/>
<path d="M49.898 94.8242C50.3152 94.8242 50.6535 94.4388 50.6535 93.9633C50.6535 93.4878 50.3152 93.1023 49.898 93.1023C49.4808 93.1023 49.1426 93.4878 49.1426 93.9633C49.1426 94.4388 49.4808 94.8242 49.898 94.8242Z" fill="white"/>
<path d="M53.5806 94.8242C53.9979 94.8242 54.3361 94.4388 54.3361 93.9633C54.3361 93.4878 53.9979 93.1023 53.5806 93.1023C53.1634 93.1023 52.8252 93.4878 52.8252 93.9633C52.8252 94.4388 53.1634 94.8242 53.5806 94.8242Z" fill="white"/>
<path d="M52.4924 120.32L48.4375 116.038L52.4924 111.755" stroke="#2563EB" stroke-width="2" stroke-linecap="round" stroke-linejoin="round"/>
<path d="M60.5186 111.755L64.5735 116.038L60.5186 120.32" stroke="#2563EB" stroke-width="2" stroke-linecap="round" stroke-linejoin="round"/>
<path d="M59.6246 108.444L53.3867 123.636" stroke="#2563EB" stroke-width="2" stroke-linecap="round" stroke-linejoin="round"/>
<path d="M115.704 111.81H74.044C73.7376 111.81 73.4438 111.689 73.2271 111.472C73.0104 111.255 72.8887 110.961 72.8887 110.655C72.8887 110.348 73.0102 110.054 73.2267 109.836C73.4433 109.619 73.7371 109.496 74.044 109.494H115.704C116.011 109.496 116.305 109.619 116.522 109.836C116.738 110.054 116.86 110.348 116.86 110.655C116.86 110.961 116.738 111.255 116.521 111.472C116.305 111.689 116.011 111.81 115.704 111.81Z" fill="#C5CAE9"/>
<path d="M115.704 117.193H74.044C73.7376 117.193 73.4438 117.071 73.2271 116.855C73.0104 116.638 72.8887 116.344 72.8887 116.038C72.8887 115.731 73.0104 115.437 73.2271 115.221C73.4438 115.004 73.7376 114.882 74.044 114.882H115.704C116.011 114.882 116.305 115.004 116.521 115.221C116.738 115.437 116.86 115.731 116.86 116.038C116.86 116.344 116.738 116.638 116.521 116.855C116.305 117.071 116.011 117.193 115.704 117.193Z" fill="#C5CAE9"/>
<path d="M115.704 122.581H74.044C73.7376 122.581 73.4438 122.459 73.2271 122.243C73.0104 122.026 72.8887 121.732 72.8887 121.426C72.8887 121.119 73.0102 120.824 73.2267 120.607C73.4433 120.389 73.7371 120.266 74.044 120.265H115.704C116.009 120.265 116.302 120.385 116.519 120.599C116.737 120.813 116.861 121.104 116.865 121.409C116.867 121.563 116.839 121.715 116.782 121.857C116.724 122 116.639 122.13 116.531 122.239C116.423 122.348 116.294 122.434 116.152 122.493C116.01 122.552 115.858 122.582 115.704 122.581Z" fill="#C5CAE9"/>
<path d="M132.013 67.0009V64.6179L127.841 63.7347C127.68 62.6371 127.393 61.5616 126.986 60.5297L130.158 57.6857L128.963 55.6193L124.908 56.9469C124.221 56.0766 123.435 55.2898 122.564 54.6028L123.892 50.5479L121.826 49.3536L118.976 52.5309C117.946 52.1228 116.873 51.8357 115.777 51.6755L114.893 47.5039H112.51L111.633 51.6755C110.535 51.8357 109.459 52.1228 108.428 52.5309L105.584 49.3592L103.534 50.5479L104.862 54.6028C103.993 55.2913 103.206 56.0779 102.518 56.9469L98.4626 55.6193L97.2739 57.6857L100.446 60.5297C100.036 61.5614 99.7475 62.6368 99.5847 63.7347L95.4131 64.6179V67.0009L99.5847 67.8785C99.7468 68.9766 100.036 70.0521 100.446 71.0836L97.2739 73.9276L98.4626 75.9995L102.518 74.6719C103.207 75.5396 103.994 76.326 104.862 77.016L103.534 81.0709L105.606 82.2596L108.45 79.0879C109.481 79.4978 110.557 79.7868 111.655 79.9489L112.533 84.1204H114.916L115.799 79.9489C116.895 79.7867 117.969 79.4978 118.998 79.0879L121.848 82.2596L123.914 81.0709L122.587 77.016C123.456 76.3275 124.242 75.5409 124.931 74.6719L128.986 75.9995L130.18 73.9276L127.008 71.0836C127.416 70.0519 127.703 68.9764 127.864 67.8785L132.013 67.0009ZM124.114 65.8066C124.115 67.867 123.505 69.8814 122.361 71.595C121.217 73.3086 119.591 74.6444 117.687 75.4334C115.784 76.2223 113.689 76.4291 111.669 76.0274C109.648 75.6257 107.791 74.6336 106.335 73.1767C104.878 71.7198 103.886 69.8635 103.484 67.8427C103.082 65.8218 103.289 63.7273 104.078 61.8239C104.867 59.9206 106.203 58.2941 107.916 57.1501C109.63 56.0061 111.644 55.396 113.705 55.3971C116.465 55.3986 119.112 56.4958 121.064 58.4476C123.016 60.3995 124.113 63.0463 124.114 65.8066Z" fill="url(#paint15_linear_405_66454)"/>
<path d="M148.772 84.7481V83.5372L146.656 83.0872C146.575 82.5297 146.43 81.9834 146.222 81.4597L147.833 80.021L147.228 78.9712L145.195 79.6211C144.847 79.179 144.448 78.78 144.006 78.4324L144.678 76.3716L143.628 75.7661L142.184 77.377C141.66 77.1696 141.114 77.0242 140.557 76.9437L140.112 74.8274H138.901L138.457 76.9437C137.899 77.0242 137.353 77.1696 136.83 77.377L135.385 75.7661L134.335 76.3716L135.008 78.4324C134.566 78.78 134.166 79.179 133.819 79.6211L131.764 78.949L131.158 79.9988L132.769 81.4375C132.56 81.9611 132.413 82.5073 132.33 83.065L130.214 83.5149V84.7481L132.33 85.1924C132.413 85.7502 132.56 86.2964 132.769 86.82L131.158 88.2642L131.764 89.3085L133.819 88.6364C134.168 89.0788 134.567 89.4796 135.008 89.8306L134.335 91.8858L135.385 92.4913L136.83 90.8804C137.352 91.0902 137.899 91.2357 138.457 91.3137L138.901 93.4356H140.112L140.557 91.3137C141.115 91.2357 141.661 91.0902 142.184 90.8804L143.628 92.4913L144.678 91.8858L144.006 89.8306C144.447 89.4796 144.846 89.0788 145.195 88.6364L147.256 89.3085L147.861 88.2642L146.25 86.82C146.458 86.2962 146.603 85.75 146.684 85.1924L148.772 84.7481ZM144.762 84.1426C144.761 85.1872 144.45 86.2079 143.869 87.0759C143.288 87.9439 142.462 88.6201 141.497 89.0191C140.531 89.418 139.469 89.5218 138.445 89.3174C137.421 89.1129 136.48 88.6094 135.742 87.8704C135.004 87.1314 134.501 86.1901 134.298 85.1656C134.094 84.141 134.199 83.0792 134.599 82.1142C134.999 81.1493 135.676 80.3246 136.545 79.7444C137.413 79.1642 138.435 78.8545 139.479 78.8545C140.877 78.8545 142.218 79.4088 143.209 80.3959C144.199 81.3829 144.757 82.7223 144.762 84.1204V84.1426Z" fill="url(#paint16_linear_405_66454)"/>
<path d="M181.816 71.239H154.754V111.599H181.816V71.239Z" fill="url(#paint17_linear_405_66454)"/>
<path d="M157.742 66.9785H178.85C179.643 66.9785 180.403 67.2934 180.963 67.8538C181.524 68.4142 181.839 69.1744 181.839 69.9669V71.239H154.754V69.9669C154.754 69.1744 155.069 68.4142 155.629 67.8538C156.19 67.2934 156.95 66.9785 157.742 66.9785Z" fill="url(#paint18_linear_405_66454)"/>
<path d="M154.754 111.366H181.828V112.638C181.828 113.431 181.513 114.191 180.953 114.751C180.392 115.312 179.632 115.627 178.839 115.627H157.732C156.939 115.627 156.179 115.312 155.618 114.751C155.058 114.191 154.743 113.431 154.743 112.638V111.366H154.754Z" fill="url(#paint19_linear_405_66454)"/>
<g style="mix-blend-mode:overlay" opacity="0.24">
<path d="M181.816 71.239H154.754V78.2435L181.816 105.306V71.239Z" fill="white"/>
</g>
<path d="M168.285 95.1631C166.36 95.1642 164.478 94.5944 162.877 93.5257C161.276 92.457 160.028 90.9375 159.29 89.1593C158.553 87.3812 158.359 85.4243 158.734 83.5361C159.109 81.648 160.035 79.9134 161.396 78.5518C162.757 77.1902 164.491 76.2628 166.379 75.8869C168.267 75.5109 170.224 75.7033 172.003 76.4397C173.781 77.1761 175.301 78.4235 176.371 80.024C177.441 81.6245 178.011 83.5063 178.011 85.4313C178.009 88.0105 176.983 90.4832 175.16 92.3075C173.337 94.1318 170.864 95.1587 168.285 95.1631ZM168.285 76.3049C166.479 76.3038 164.712 76.8386 163.21 77.8416C161.707 78.8446 160.536 80.2708 159.844 81.9396C159.152 83.6085 158.971 85.4451 159.323 87.217C159.675 88.989 160.545 90.6166 161.822 91.8941C163.1 93.1715 164.728 94.0414 166.499 94.3936C168.271 94.7457 170.108 94.5644 171.777 93.8726C173.446 93.1807 174.872 92.0094 175.875 90.5068C176.878 89.0042 177.413 87.2379 177.412 85.4313C177.409 83.0117 176.446 80.6921 174.735 78.9812C173.024 77.2703 170.705 76.3079 168.285 76.3049Z" fill="white"/>
<path d="M168.286 95.1632C165.414 95.1632 163.17 90.8916 163.17 85.4313C163.17 79.9711 165.392 75.7051 168.286 75.7051C171.18 75.7051 173.396 79.9766 173.396 85.4313C173.396 90.886 171.152 95.1632 168.286 95.1632ZM168.286 76.305C165.792 76.305 163.77 80.3988 163.77 85.4313C163.77 90.4639 165.792 94.5632 168.286 94.5632C170.78 94.5632 172.796 90.4694 172.796 85.4313C172.796 80.3932 170.774 76.305 168.286 76.305Z" fill="white"/>
<path d="M168.285 94.9519C168.119 94.9519 167.985 95.0297 167.985 94.8631V75.9771C167.985 75.8105 168.119 75.8882 168.285 75.8882C168.452 75.8882 168.58 75.8105 168.58 75.9771V94.8631C168.58 95.0297 168.446 94.9519 168.285 94.9519Z" fill="white"/>
<path d="M177.712 85.7312H158.826C158.784 85.737 158.74 85.7336 158.699 85.7214C158.658 85.7091 158.62 85.6882 158.588 85.66C158.556 85.6319 158.53 85.5971 158.512 85.5581C158.495 85.5192 158.485 85.4768 158.485 85.434C158.485 85.3912 158.495 85.3488 158.512 85.3098C158.53 85.2708 158.556 85.2361 158.588 85.2079C158.62 85.1798 158.658 85.1589 158.699 85.1466C158.74 85.1343 158.784 85.131 158.826 85.1368H177.712C177.754 85.131 177.798 85.1343 177.839 85.1466C177.88 85.1589 177.918 85.1798 177.95 85.2079C177.982 85.2361 178.008 85.2708 178.026 85.3098C178.043 85.3488 178.053 85.3912 178.053 85.434C178.053 85.4768 178.043 85.5192 178.026 85.5581C178.008 85.5971 177.982 85.6319 177.95 85.66C177.918 85.6882 177.88 85.7091 177.839 85.7214C177.798 85.7336 177.754 85.737 177.712 85.7312Z" fill="white"/>
<path d="M168.285 95.1631C165.914 95.1619 163.626 94.2925 161.853 92.719C161.794 92.6685 161.758 92.5972 161.752 92.5203C161.746 92.4434 161.77 92.3672 161.819 92.308C162.574 91.3072 163.551 90.4953 164.673 89.9362C165.795 89.3772 167.031 89.0862 168.285 89.0862C169.538 89.0862 170.775 89.3772 171.897 89.9362C173.019 90.4953 173.996 91.3072 174.751 92.308C174.799 92.3679 174.823 92.4445 174.815 92.5214C174.808 92.5983 174.771 92.6693 174.712 92.719C172.94 94.2912 170.654 95.1606 168.285 95.1631ZM162.469 92.4635C164.103 93.82 166.159 94.5625 168.282 94.5625C170.405 94.5625 172.462 93.82 174.095 92.4635C173.396 91.5943 172.511 90.8929 171.505 90.411C170.499 89.9292 169.398 89.679 168.282 89.679C167.167 89.679 166.065 89.9292 165.059 90.411C164.053 90.8929 163.168 91.5943 162.469 92.4635Z" fill="white"/>
<path d="M168.285 81.7817C167.035 81.7643 165.804 81.4657 164.685 80.908C163.566 80.3503 162.586 79.5478 161.819 78.56C161.77 78.5008 161.746 78.4245 161.752 78.3477C161.758 78.2708 161.794 78.1994 161.853 78.1489C163.625 76.5751 165.912 75.7058 168.282 75.7058C170.652 75.7058 172.94 76.5751 174.712 78.1489C174.771 78.1987 174.808 78.2696 174.815 78.3465C174.823 78.4234 174.799 78.5001 174.751 78.56C173.984 79.5478 173.004 80.3503 171.885 80.908C170.766 81.4657 169.535 81.7643 168.285 81.7817ZM162.469 78.4045C163.168 79.2737 164.053 79.975 165.059 80.4569C166.065 80.9388 167.167 81.1889 168.282 81.1889C169.398 81.1889 170.499 80.9388 171.505 80.4569C172.511 79.975 173.396 79.2737 174.095 78.4045C172.462 77.048 170.405 76.3054 168.282 76.3054C166.159 76.3054 164.103 77.048 162.469 78.4045Z" fill="white"/>
<path d="M176.978 101.957L169.818 97.7683L170.452 106.039L172.412 103.656L173.857 105.967L175.423 104.984L173.973 102.679L176.978 101.957Z" fill="white"/>
</g>
<defs>
<linearGradient id="paint0_linear_405_66454" x1="44.96" y1="146.822" x2="96.5075" y2="146.822" gradientUnits="userSpaceOnUse">
<stop stop-color="#FF9100"/>
<stop offset="1" stop-color="#FFC46E"/>
</linearGradient>
<linearGradient id="paint1_linear_405_66454" x1="44.9658" y1="156.676" x2="96.5078" y2="156.676" gradientUnits="userSpaceOnUse">
<stop stop-color="#FF9100"/>
<stop offset="1" stop-color="#FFC46E"/>
</linearGradient>
<linearGradient id="paint2_linear_405_66454" x1="44.9658" y1="166.524" x2="96.5078" y2="166.524" gradientUnits="userSpaceOnUse">
<stop stop-color="#FF9100"/>
<stop offset="1" stop-color="#FFC46E"/>
</linearGradient>
<linearGradient id="paint3_linear_405_66454" x1="44.9658" y1="176.373" x2="96.5078" y2="176.373" gradientUnits="userSpaceOnUse">
<stop stop-color="#FF9100"/>
<stop offset="1" stop-color="#FFC46E"/>
</linearGradient>
<linearGradient id="paint4_linear_405_66454" x1="44.96" y1="186.221" x2="96.5075" y2="186.221" gradientUnits="userSpaceOnUse">
<stop stop-color="#FF9100"/>
<stop offset="1" stop-color="#FFC46E"/>
</linearGradient>
<linearGradient id="paint5_linear_405_66454" x1="44.96" y1="186.221" x2="96.5075" y2="186.221" gradientUnits="userSpaceOnUse">
<stop stop-color="#FF9100"/>
<stop offset="1" stop-color="#FFC46E"/>
</linearGradient>
<linearGradient id="paint6_linear_405_66454" x1="44.9601" y1="146.822" x2="96.5077" y2="146.822" gradientUnits="userSpaceOnUse">
<stop stop-color="#FF9100"/>
<stop offset="1" stop-color="#FFC46E"/>
</linearGradient>
<linearGradient id="paint7_linear_405_66454" x1="44.9662" y1="156.676" x2="96.5081" y2="156.676" gradientUnits="userSpaceOnUse">
<stop stop-color="#FF9100"/>
<stop offset="1" stop-color="#FFC46E"/>
</linearGradient>
<linearGradient id="paint8_linear_405_66454" x1="44.9653" y1="166.524" x2="96.5073" y2="166.524" gradientUnits="userSpaceOnUse">
<stop stop-color="#FF9100"/>
<stop offset="1" stop-color="#FFC46E"/>
</linearGradient>
<linearGradient id="paint9_linear_405_66454" x1="44.9659" y1="174.973" x2="96.5078" y2="174.973" gradientUnits="userSpaceOnUse">
<stop stop-color="#FF9100"/>
<stop offset="1" stop-color="#FFC46E"/>
</linearGradient>
<linearGradient id="paint10_linear_405_66454" x1="99.8906" y1="197.33" x2="164.575" y2="197.33" gradientUnits="userSpaceOnUse">
<stop stop-color="#CCD1EC"/>
<stop offset="1" stop-color="white"/>
</linearGradient>
<linearGradient id="paint11_linear_405_66454" x1="132.235" y1="179.739" x2="132.235" y2="96.6072" gradientUnits="userSpaceOnUse">
<stop stop-color="#CCD1EC"/>
<stop offset="1" stop-color="white"/>
</linearGradient>
<linearGradient id="paint12_linear_405_66454" x1="132.235" y1="165.985" x2="132.235" y2="102.545" gradientUnits="userSpaceOnUse">
<stop stop-color="#4963FF"/>
<stop offset="1" stop-color="#5C6BC0"/>
</linearGradient>
<linearGradient id="paint13_linear_405_66454" x1="81.8603" y1="145.538" x2="81.8603" y2="87.2586" gradientUnits="userSpaceOnUse">
<stop stop-color="#CCD1EC"/>
<stop offset="1" stop-color="white"/>
</linearGradient>
<linearGradient id="paint14_linear_405_66454" x1="43.416" y1="93.9633" x2="120.304" y2="93.9633" gradientUnits="userSpaceOnUse">
<stop stop-color="#FF9100"/>
<stop offset="1" stop-color="#FFC46E"/>
</linearGradient>
<linearGradient id="paint15_linear_405_66454" x1="146.033" y1="98.1405" x2="97.4628" y2="49.5703" gradientUnits="userSpaceOnUse">
<stop stop-color="white"/>
<stop offset="1" stop-color="#DFE2F3"/>
</linearGradient>
<linearGradient id="paint16_linear_405_66454" x1="149.772" y1="94.4077" x2="101.196" y2="45.8319" gradientUnits="userSpaceOnUse">
<stop stop-color="white"/>
<stop offset="1" stop-color="#DFE2F3"/>
</linearGradient>
<linearGradient id="paint17_linear_405_66454" x1="168.285" y1="110.644" x2="168.285" y2="70.067" gradientUnits="userSpaceOnUse">
<stop stop-color="#C445C0"/>
<stop offset="1" stop-color="#FF3EFF"/>
</linearGradient>
<linearGradient id="paint18_linear_405_66454" x1="187.177" y1="72.5438" x2="186.578" y2="64.1354" gradientUnits="userSpaceOnUse">
<stop stop-color="#CCD1EC"/>
<stop offset="1" stop-color="white"/>
</linearGradient>
<linearGradient id="paint19_linear_405_66454" x1="29.0072" y1="87.8958" x2="28.409" y2="79.487" gradientUnits="userSpaceOnUse">
<stop stop-color="#CCD1EC"/>
<stop offset="1" stop-color="white"/>
</linearGradient>
<clipPath id="clip0_405_66454">
<rect width="254.622" height="250" fill="white" transform="translate(0.189453 0.5)"/>
</clipPath>
</defs>
</svg>
