<svg width="303" height="103" viewBox="0 0 303 103" fill="none" xmlns="http://www.w3.org/2000/svg">
<g clip-path="url(#clip0_406_65955)">
<path d="M302.5 51.6058C302.5 64.0624 302.5 76.519 302.5 88.9755C302.5 91.9607 302.1 92.4012 299.062 92.4012C285.385 92.4012 271.705 92.3288 258.027 92.4012C255.996 92.4012 254.621 91.8622 253.284 90.3377C249.433 85.944 245.467 81.643 241.446 77.4058C240.873 76.8281 240.426 76.1383 240.132 75.3797C239.838 74.6211 239.705 73.8102 239.74 72.9976C239.813 64.4054 239.861 55.8131 239.882 47.2208C239.902 36.0685 239.882 24.9045 239.882 13.7608C239.882 11.335 240.433 10.7322 242.836 10.7322C261.832 10.7322 280.828 10.7457 299.822 10.7728C301.821 10.7728 302.492 11.477 302.492 13.5116C302.501 26.2097 302.504 38.9077 302.5 51.6058ZM298.511 51.6522C298.511 40.011 298.511 28.3698 298.511 16.7286C298.511 15.7519 298.662 14.8419 297.092 14.8448C279.829 14.8911 262.566 14.8911 245.305 14.8448C244.214 14.8448 243.871 15.2476 243.892 16.2939C243.941 18.6588 243.892 21.0267 243.892 23.3945V70.7863C243.892 72.7542 243.892 72.7571 245.905 72.7571H254.61C257.775 72.7571 258.135 73.1107 258.138 76.2089C258.138 79.5901 258.138 82.9714 258.138 86.3526C258.138 88.3466 258.138 88.3495 260.134 88.3524H296.402C298.494 88.3524 298.499 88.3524 298.499 86.2831C298.507 74.7404 298.511 63.1968 298.511 51.6522ZM247.124 76.8841C247.06 77.0233 246.993 77.174 246.93 77.2986L253.675 84.6456L254.113 84.3558C254.113 82.1444 254.14 79.9331 254.079 77.7246C254.032 77.5387 253.938 77.3678 253.807 77.2283C253.675 77.0888 253.51 76.9853 253.327 76.9276C251.261 76.8552 249.187 76.8841 247.124 76.8841Z" fill="#2563EB"/>
<path d="M150.289 51.5073C150.289 34.9894 150.289 18.4695 150.289 1.94769C150.289 -0.0115049 150.289 -0.0115061 152.241 -0.0144043C155.053 -0.0144043 155.053 -0.0144029 155.053 2.84904C155.053 35.4463 155.053 68.0436 155.053 100.641C155.053 103.29 155.207 102.98 152.714 102.96C150.025 102.96 150.292 103.316 150.292 100.597C150.286 84.2457 150.285 67.8823 150.289 51.5073Z" fill="#60A5FA"/>
<path d="M164.999 51.6522V93.2417C164.999 95.1603 164.999 95.1777 163.127 95.1603C159.773 95.1285 160.24 95.5893 160.226 92.2157C160.214 64.8295 160.214 37.4432 160.226 10.0569C160.226 7.84554 160.226 7.83104 162.41 7.84843C165.341 7.87161 164.984 7.50354 164.987 10.3583C165.002 24.1229 165.006 37.8876 164.999 51.6522Z" fill="#60A5FA"/>
<path d="M130.315 51.5073V14.2767C130.315 12.4016 130.315 12.3842 132.236 12.4016C135.471 12.4277 135.036 12.0161 135.039 15.1317C135.05 39.6159 135.05 64.1011 135.039 88.5872C135.039 90.616 135.039 90.616 132.97 90.616C129.923 90.5899 130.318 90.9667 130.315 88.0337C130.305 75.8553 130.305 63.6799 130.315 51.5073Z" fill="#60A5FA"/>
<path d="M184.972 51.5072C184.972 63.9695 184.949 76.4116 185.001 88.8653C185.001 90.2593 184.624 90.6911 183.22 90.6506C180.22 90.5607 180.217 90.6332 180.217 87.6538V14.3722C180.217 12.4014 180.217 12.384 182.184 12.4014C185.416 12.4304 184.961 12.0217 184.964 15.1489C184.981 27.2635 184.984 39.3829 184.972 51.5072Z" fill="#60A5FA"/>
<path d="M145.026 51.6348V83.9413C145.026 86.0396 145.026 86.0396 142.995 86.0483C140.331 86.0483 140.331 86.0483 140.331 83.3849C140.331 61.9921 140.338 40.6003 140.351 19.2095C140.351 18.4965 140.557 17.2155 140.827 17.1807C142.106 17.0102 143.403 17.0151 144.68 17.1952C144.851 17.2155 145.005 18.2125 145.005 18.7574C145.027 27.1622 145.031 35.5671 145.02 43.9719L145.026 51.6348Z" fill="#60A5FA"/>
<path d="M174.956 51.5073C174.956 61.796 174.93 72.0847 174.988 82.3704C174.988 83.8196 174.585 84.2891 173.108 84.2311C170.276 84.121 170.273 84.205 170.273 81.3561V20.7861C170.273 18.8182 170.273 18.7979 172.241 18.8211C175.209 18.8559 174.951 18.3516 174.953 21.5135C174.965 31.5105 174.966 41.5084 174.956 51.5073Z" fill="#60A5FA"/>
<path d="M120.322 51.5247C120.322 42.9807 120.322 34.4377 120.322 25.8957C120.322 24.0002 120.322 23.98 122.255 23.9973C125.365 24.0234 125.002 23.5974 125.005 26.797C125.017 43.543 125.017 60.2908 125.005 77.0407C125.005 79.0056 125.005 79.023 123.015 79.0056C120.052 78.9767 120.325 79.4085 120.322 76.2842C120.314 68.0301 120.314 59.7769 120.322 51.5247Z" fill="#60A5FA"/>
<path d="M65.1582 51.3624C65.1582 58.0747 65.1234 64.7899 65.1873 71.5021C65.1873 72.8527 64.8971 73.386 63.4464 73.3367C59.7529 73.2121 60.397 73.6584 60.3912 70.2356C60.3622 57.3385 60.3622 44.4424 60.3912 31.5472C60.3912 29.6257 60.3912 29.6257 62.2626 29.6228C65.1815 29.6228 65.1814 29.6228 65.1814 32.521L65.1582 51.3624Z" fill="#60A5FA"/>
<path d="M194.913 51.5217C194.913 56.8283 194.878 62.135 194.936 67.4387C194.936 68.6994 194.675 69.2501 193.27 69.195C189.815 69.053 190.288 69.6153 190.279 66.1751C190.258 56.0467 190.258 45.9175 190.279 35.7872C190.279 33.8483 190.279 33.828 192.153 33.8425C195.345 33.8715 194.895 33.4715 194.91 36.619C194.93 41.5865 194.913 46.5541 194.913 51.5217Z" fill="#60A5FA"/>
<path d="M55.1301 51.487C55.1301 56.2632 55.0953 61.0511 55.1504 65.8187C55.1504 67.0649 54.7936 67.5286 53.5024 67.4881C49.9279 67.3837 50.4153 67.859 50.4066 64.4014C50.3863 55.4749 50.4066 46.5484 50.4066 37.6189C50.4066 35.5322 50.4066 35.5235 52.4637 35.5293C55.3651 35.5293 55.1272 35.2801 55.133 38.1667C55.1388 42.6165 55.1379 47.0565 55.1301 51.487Z" fill="#60A5FA"/>
<path d="M110.301 51.3594C110.301 47.2063 110.333 43.0531 110.281 38.8971C110.266 37.7842 110.571 37.3784 111.746 37.3871C115.074 37.4161 115.074 37.3639 115.074 40.6215C115.074 48.3453 115.042 56.0691 115.103 63.8073C115.103 65.1637 114.813 65.6796 113.362 65.6216C109.77 65.4767 110.345 66.0592 110.313 62.5176C110.275 58.7934 110.301 55.075 110.301 51.3594Z" fill="#60A5FA"/>
<path d="M75.0814 51.4839C75.0814 55.3415 75.0524 59.1961 75.0988 63.0537C75.1133 64.0941 74.8348 64.5173 73.7177 64.4825C69.8472 64.3608 70.4565 65.0302 70.4362 61.193C70.4014 54.2054 70.4536 47.2149 70.4043 40.2272C70.4043 38.9346 70.7351 38.4593 72.1045 38.4883C75.0785 38.5781 75.0814 38.5028 75.0814 41.4938V51.4839Z" fill="#60A5FA"/>
<path d="M45.1552 51.5072C45.1552 54.8807 45.1233 58.2543 45.1755 61.6278C45.1929 62.6596 44.9434 63.0769 43.8176 63.0769C40.365 63.0769 40.365 63.1349 40.365 59.6947C40.365 53.7185 40.4056 47.7395 40.3359 41.7634C40.3359 40.4215 40.6029 39.8998 42.0768 39.9462C45.1668 40.0447 45.1668 39.9636 45.1668 43.1342L45.1552 51.5072Z" fill="#60A5FA"/>
<path d="M200.213 51.3508C200.213 48.0729 200.245 44.795 200.195 41.5171C200.195 40.5201 200.509 40.1463 201.518 40.1666C205.786 40.2506 204.939 39.6797 204.974 43.5575C205.029 49.438 204.954 55.3214 205.015 61.2019C205.015 62.4684 204.661 62.8683 203.384 62.851C200.213 62.8046 200.213 62.851 200.213 59.7412V51.3508Z" fill="#60A5FA"/>
<path d="M105.055 51.5072C105.055 54.304 105.02 57.1008 105.072 59.8947C105.096 61.0337 104.663 61.4133 103.543 61.3873C99.7483 61.3032 100.389 61.7727 100.352 58.2804C100.311 53.2693 100.378 48.2554 100.317 43.2444C100.3 41.9749 100.691 41.5547 101.962 41.5924C105.444 41.688 105.014 41.2533 105.043 44.7138C105.072 46.9831 105.058 49.2495 105.055 51.5072Z" fill="#60A5FA"/>
<path d="M95.0778 51.6231C95.0778 53.2635 95.0778 54.9059 95.0778 56.5501C95.0778 56.8399 95.1764 57.2109 95.0343 57.4051C94.0304 58.7875 92.5739 57.8108 91.3349 57.9847C91.0448 58.0282 90.363 57.3616 90.3543 57.0109C90.2817 53.3418 90.1222 49.6581 90.3833 45.9977C90.5342 43.8849 92.5245 45.2847 93.6387 44.9601C94.4395 44.7283 95.1416 44.9282 95.0894 46.102C95.0256 47.954 95.0778 49.7886 95.0778 51.6231Z" fill="#60A5FA"/>
<path d="M80.3819 51.4175C80.3819 49.8785 80.4312 48.3367 80.3645 46.7977C80.321 45.7688 80.7243 45.4993 81.7108 45.4935C85.1489 45.4703 85.1489 45.4356 85.146 48.8873C85.146 51.3421 85.1054 53.7969 85.146 56.2517C85.146 57.1965 84.8008 57.4864 83.8723 57.5067C80.3906 57.582 80.3906 57.611 80.3906 54.1621L80.3819 51.4175Z" fill="#60A5FA"/>
<path d="M214.926 51.5074C214.926 53.0492 214.903 54.5911 214.926 56.1445C214.944 56.956 214.607 57.2516 213.806 57.2372C209.37 57.1473 210.235 57.8603 210.153 53.7593C210.113 51.5914 210.197 49.412 210.127 47.2528C210.09 46.0935 210.522 45.7747 211.642 45.7834C214.92 45.8008 214.92 45.7573 214.92 49.0642V51.5074H214.926Z" fill="#60A5FA"/>
<path d="M20.3985 51.5072C20.3985 50.0581 20.4188 48.609 20.3985 47.1599C20.384 46.3745 20.6683 46.0238 21.4981 46.0383C26.0678 46.1252 25.0814 45.4209 25.1771 49.4785C25.2264 51.5536 25.1539 53.6316 25.1945 55.7067C25.2148 56.6255 24.9044 57.0023 23.9498 56.9791C19.6296 56.8718 20.5 57.5935 20.3985 53.536C20.384 52.852 20.3985 52.1767 20.3985 51.5072Z" fill="#60A5FA"/>
<path d="M35.2301 51.3709C35.2301 52.4781 35.2301 53.5881 35.2301 54.6952C35.2301 54.985 35.323 55.3589 35.1779 55.5473C34.1508 56.895 32.6972 55.9617 31.4467 56.1269C31.1566 56.1617 30.5153 55.4777 30.5008 55.1068C30.4138 52.7012 30.4138 50.287 30.5008 47.8815C30.5008 47.5163 31.1333 47.1714 31.4786 46.8236C31.5018 46.7975 31.5715 46.8236 31.6208 46.8236C36.0832 46.8236 35.1228 46.4092 35.2272 50.0812C35.2388 50.5015 35.2301 50.9275 35.2301 51.3709Z" fill="#60A5FA"/>
<path d="M220.294 51.4552C220.294 50.3915 220.34 49.3279 220.294 48.2671C220.247 47.2064 220.555 46.7716 221.672 46.7919C225.827 46.8644 224.959 46.4239 225.043 50.0061C225.081 51.6928 225.104 53.3883 225 55.0722C224.979 55.4431 224.393 55.7822 224.06 56.1329C224.036 56.159 223.967 56.1329 223.917 56.1329C219.449 56.0894 220.436 56.6691 220.308 52.7478C220.282 52.3217 220.294 51.887 220.294 51.4552Z" fill="#60A5FA"/>
<path d="M10.4721 51.2173C10.5475 48.1974 9.828 48.6089 13.5795 48.5162C14.8242 48.4872 15.4016 48.8582 15.2246 50.1508C15.1997 50.5368 15.1997 50.9241 15.2246 51.3101C15.2246 54.5126 14.4296 55.1444 11.2323 54.3996C11.0558 54.3265 10.8989 54.2132 10.7739 54.0688C10.649 53.9244 10.5596 53.7528 10.5127 53.5678C10.3996 52.9128 10.4721 52.2259 10.4721 51.2173Z" fill="#60A5FA"/>
<path d="M2.82979 52.8811C2.44321 52.8605 2.05581 52.8605 1.66923 52.8811C0.639223 52.9854 0.48835 52.3884 0.491251 51.5537C0.494153 50.719 0.566685 50.0002 1.70694 50.1046C2.2292 50.1567 2.76306 50.1046 3.29112 50.1046C4.21667 50.1046 5.17994 49.835 5.21476 51.432C5.24668 53.1013 4.25439 52.8811 3.2534 52.8637L2.82979 52.8811Z" fill="#60A5FA"/>
<path d="M272.688 33.9584C278.825 33.9584 284.964 33.9323 291.1 33.9903C291.855 33.9903 292.789 34.2482 293.32 34.7351C294.385 35.7147 293.764 37.5377 292.319 37.9232C291.801 38.0337 291.27 38.0776 290.741 38.0536C278.706 38.0536 266.671 38.0536 254.638 38.0536C254.444 38.0536 254.252 38.0536 254.058 38.0536C252.497 37.9956 251.598 37.2218 251.627 35.964C251.656 34.7583 252.497 33.97 253.986 33.9613C260.212 33.9381 266.45 33.9584 272.688 33.9584Z" fill="#60A5FA"/>
<path d="M272.743 54.023C266.607 54.023 260.47 54.052 254.334 53.9853C253.553 53.9853 252.564 53.6549 252.045 53.1159C251.067 52.1073 251.754 50.3742 253.147 50.0814C253.954 49.931 254.775 49.8659 255.596 49.8873C267.14 49.9162 278.685 49.9529 290.233 49.9974C290.619 49.9974 291.008 49.9974 291.394 49.9974C293.056 50.0409 293.819 50.6901 293.787 52.0261C293.755 53.3188 292.937 53.9998 291.298 54.0056C285.112 54.0288 278.926 54.0201 272.743 54.023Z" fill="#60A5FA"/>
<path d="M272.769 41.9953C279.002 41.9953 285.234 41.9953 291.466 41.9953C293.01 41.9953 293.787 42.6764 293.787 43.9545C293.787 45.0732 293.245 45.7833 292.101 45.9427C291.765 45.9774 291.427 45.9891 291.089 45.9774H254.409C254.165 45.9774 253.925 45.9774 253.684 45.9774C252.398 45.9514 251.708 45.2587 251.63 44.0182C251.557 42.8792 252.358 42.0706 253.629 42.0156C254.899 41.9605 256.24 41.9982 257.54 41.9982L272.769 41.9953Z" fill="#60A5FA"/>
<path d="M272.534 61.9757H254.853C254.322 61.9918 253.791 61.9686 253.263 61.9062C252.184 61.7468 251.664 61.0106 251.644 59.9934C251.605 59.5278 251.745 59.065 252.034 58.6978C252.323 58.3306 252.74 58.0862 253.202 58.0139C253.682 57.9369 254.168 57.9126 254.653 57.9414C266.827 57.9414 279.002 57.953 291.176 57.9762C291.817 57.9762 292.708 58.0544 293.039 58.4602C293.485 59.0051 293.828 60.0165 293.619 60.6165C293.41 61.2164 292.458 61.8656 291.817 61.9004C289.069 62.0453 286.304 61.9757 283.56 61.9786L272.534 61.9757Z" fill="#60A5FA"/>
<path d="M272.534 69.9921C266.496 69.9921 260.459 69.9921 254.418 69.9747C253.765 69.9747 252.915 69.9515 252.509 69.5661C252.027 69.1111 251.598 68.1662 251.751 67.5953C251.92 66.9722 252.735 66.1607 253.347 66.0882C255.108 65.8824 256.91 65.9984 258.697 65.9984H290.578C291.063 65.9984 291.547 65.9984 292.029 66.0244C293.108 66.1085 293.7 66.7316 293.77 67.7866C293.854 68.8995 293.329 69.6588 292.229 69.9081C291.706 69.9934 291.174 70.0206 290.645 69.9892C284.608 69.995 278.571 69.996 272.534 69.9921Z" fill="#60A5FA"/>
<path d="M278.639 26.0174C282.843 26.0174 287.053 26.0174 291.251 26.0174C293.027 26.0174 293.816 26.6782 293.79 28.0607C293.767 29.3793 292.995 30.0054 291.303 30.0083C282.75 30.0083 274.197 30.0083 265.643 30.0083C263.963 30.0083 263.194 29.3678 263.18 28.0433C263.165 26.7188 263.928 26.029 265.591 26.0145C269.94 26.0029 274.289 26.0174 278.639 26.0174Z" fill="#60A5FA"/>
</g>
<defs>
<clipPath id="clip0_406_65955">
<rect width="302" height="103" fill="white" transform="translate(0.5)"/>
</clipPath>
</defs>
</svg>
